<svg xmlns="http://www.w3.org/2000/svg" fill="none" viewBox="-1 -1 24 24" height="24" width="24"><g id="cog--work-loading-cog-gear-settings-machine"><path id="Vector" stroke="#ffffff" stroke-linecap="round" stroke-linejoin="round" d="m8.218634285714286 3.5357142857142856 0.6757142857142857 -1.7442857142857144c0.11396 -0.295328 0.3144585714285714 -0.5493541428571428 0.5752214285714286 -0.7288097142857143C9.730348571428571 0.8831648571428572 10.039228571428572 0.7866492857142857 10.355777142857143 0.7857142857142857h1.2885714285714285c0.31654857142857146 0.0009350000000000001 0.6254442857142857 0.09745057142857143 0.8862071428571427 0.27690457142857144 0.2607785714285714 0.1794555714285714 0.4612614285714286 0.43348171428571425 0.5752214285714286 0.7288097142857143l0.6757142857142857 1.7442857142857144 2.294222857142857 1.3199999999999998 1.854285714285714 -0.28285714285714286c0.3087857142857143 -0.041909999999999996 0.6230714285714286 0.00891 0.9029428571428572 0.14601714285714285 0.2797142857142857 0.13710714285714284 0.5124428571428571 0.3542942857142857 0.6684857142857142 0.6239828571428571l0.6285714285714286 1.0999999999999999c0.16107142857142856 0.2739785714285714 0.23539999999999997 0.5903542857142857 0.21292857142857144 0.9073742857142858 -0.022471428571428573 0.31702 -0.14048571428571427 0.6197871428571429 -0.33864285714285713 0.8683399999999999l-1.147142857142857 1.4614285714285715v2.6399999999999997l1.1785714285714286 1.4614285714285715c0.19815714285714284 0.24855285714285716 0.31617142857142855 0.5513199999999999 0.33864285714285713 0.8683399999999999 0.022471428571428573 0.31702 -0.05185714285714286 0.6333957142857143 -0.21292857142857144 0.9073742857142858l-0.6285714285714286 1.0999999999999999c-0.15604285714285715 0.2696571428571429 -0.3887714285714286 0.48682857142857144 -0.6684857142857142 0.6240142857142857 -0.2798714285714286 0.13702857142857142 -0.5941571428571428 0.18794285714285713 -0.9029428571428572 0.14598571428571427l-1.854285714285714 -0.28285714285714286 -2.294222857142857 1.3199999999999998 -0.6757142857142857 1.7442857142857144c-0.11396 0.2952714285714286 -0.31444285714285714 0.5493714285714286 -0.5752214285714286 0.7288285714285714 -0.26076285714285713 0.17945714285714284 -0.5696585714285715 0.27594285714285716 -0.8862071428571427 0.2768857142857143h-1.3199999999999998c-0.31654857142857146 -0.0009428571428571427 -0.6254285714285714 -0.09742857142857142 -0.8862071428571427 -0.2768857142857143 -0.26076285714285713 -0.17945714285714284 -0.4612614285714286 -0.4335571428571428 -0.5752214285714286 -0.7288285714285714l-0.6757142857142857 -1.7442857142857144 -2.294285714285714 -1.3199999999999998 -1.854285714285714 0.28285714285714286c-0.3087542857142857 0.04195714285714286 -0.6230085714285714 -0.008957142857142858 -0.9028171428571429 -0.14598571428571427 -0.2797928571428572 -0.1371857142857143 -0.5125214285714286 -0.35435714285714287 -0.6686114285714286 -0.6240142857142857l-0.6285714285714286 -1.0999999999999999c-0.16107142857142856 -0.2739785714285714 -0.23527428571428569 -0.5903542857142857 -0.21283428571428573 -0.9073742857142858 0.022439999999999998 -0.31702 0.14048571428571427 -0.6197871428571429 0.3385485714285714 -0.8683399999999999l1.147142857142857 -1.4614285714285715V9.68l-1.1785714285714286 -1.4614285714285715c-0.19806285714285715 -0.24855285714285716 -0.3161085714285714 -0.5513199999999999 -0.3385485714285714 -0.8683399999999999 -0.022439999999999998 -0.31702 0.05176285714285714 -0.6333957142857143 0.21283428571428573 -0.9073742857142858l0.6285714285714286 -1.0999999999999999c0.15609 -0.2696885714285714 0.38881857142857146 -0.48687571428571425 0.6686114285714286 -0.6239828571428571 0.2798085714285714 -0.13710714285714284 0.5940628571428571 -0.18792714285714285 0.9028171428571429 -0.14601714285714285l1.854285714285714 0.28285714285714286 2.3257142857142856 -1.3199999999999998Zm-0.36142857142857143 7.464285714285714c0 0.6215942857142858 0.18432857142857142 1.2292342857142857 0.5296657142857143 1.7460771428571429 0.34535285714285713 0.5168428571428572 0.8361885714285715 0.9196628571428571 1.4104671428571427 1.1575457142857144 0.5742942857142858 0.23786714285714286 1.2062128571428572 0.3001114285714286 1.8158642857142857 0.1788442857142857 0.6096514285714286 -0.12126714285714287 1.1696614285714286 -0.42059285714285716 1.6092057142857144 -0.8601371428571428 0.43952857142857144 -0.43952857142857144 0.7388542857142857 -0.9995385714285715 0.8601214285714286 -1.60919 0.12126714285714287 -0.6096514285714286 0.059038571428571426 -1.2415699999999998 -0.1788442857142857 -1.8158642857142857 -0.23786714285714286 -0.5742785714285714 -0.6407028571428571 -1.06513 -1.1575457142857144 -1.4104671428571427C12.229297142857142 8.041471428571429 11.621657142857142 7.857142857142857 11.000062857142858 7.857142857142857c-0.8335328571428571 0 -1.6329342857142857 0.3311157142857143 -2.22233 0.9205271428571429 -0.5893957142857142 0.5893957142857142 -0.9205271428571429 1.3887971428571428 -0.9205271428571429 2.22233v0Z" stroke-width="2"></path></g></svg>