<svg xmlns="http://www.w3.org/2000/svg" fill="none" viewBox="-1 -1 24 24" height="24" width="24"><g id="wallet--money-payment-finance-wallet"><path id="Subtract" stroke="#ffffff" stroke-linecap="round" stroke-linejoin="round" d="M3.331625 5.277708333333333c2.7357916666666666 -1.4208333333333334 6.216833333333333 -2.7316666666666665 9.464583333333332 -3.5305416666666667 0.9501249999999999 -0.23374999999999999 1.9318749999999998 0.11779166666666667 2.4259583333333334 0.9620416666666667 0.35291666666666666 0.6031666666666666 0.78375 1.43 1.2393333333333334 2.51075" stroke-width="2"></path><path id="Rectangle 1096" stroke="#ffffff" stroke-linecap="round" stroke-linejoin="round" d="M13.321 14.264708333333333c0.043541666666666666 0.97625 0.796125 1.703625 1.7719166666666666 1.7425833333333334 0.49729166666666663 0.020166666666666666 1.1155833333333334 0.034374999999999996 1.8654166666666667 0.034374999999999996 0.7498333333333332 0 1.3681249999999998 -0.014208333333333333 1.8654166666666667 -0.034374999999999996 0.97625 -0.03895833333333334 1.728375 -0.7663333333333333 1.7719166666666666 -1.7425833333333334 0.017416666666666667 -0.397375 0.029333333333333333 -0.8726666666666666 0.029333333333333333 -1.431375 0 -0.5591666666666666 -0.011916666666666666 -1.0339999999999998 -0.029333333333333333 -1.431375 -0.043541666666666666 -0.97625 -0.796125 -1.703625 -1.7719166666666666 -1.7425833333333334A46.80225 46.80225 0 0 0 16.958333333333332 9.625c-0.7498333333333332 0 -1.3681249999999998 0.014208333333333333 -1.8654166666666667 0.034374999999999996 -0.97625 0.03895833333333334 -1.728375 0.7663333333333333 -1.7719166666666666 1.7425833333333334A32.43258333333333 32.43258333333333 0 0 0 13.291666666666666 12.833333333333332c0 0.5591666666666666 0.011916666666666666 1.0339999999999998 0.029333333333333333 1.431375Z" stroke-width="2"></path><path id="Subtract_2" stroke="#ffffff" stroke-linecap="round" stroke-linejoin="round" d="M18.733916666666666 9.655708333333333a54.413333333333334 54.413333333333334 0 0 0 -0.13429166666666664 -2.2971666666666666c-0.09533333333333333 -1.1692083333333334 -1.0032916666666667 -2.0487499999999996 -2.1734166666666668 -2.129875C15.078708333333333 5.135166666666667 12.999708333333333 5.041666666666666 10.083333333333332 5.041666666666666s-4.995833333333334 0.09349999999999999 -6.343333333333333 0.18699999999999997c-1.1696666666666666 0.08066666666666666 -2.0776250000000003 0.9606666666666667 -2.172958333333333 2.129875C1.4685 8.565791666666666 1.375 10.364291666666666 1.375 12.833333333333332c0 2.4690416666666666 0.09349999999999999 4.267083333333334 0.19204166666666664 5.4747916666666665 0.09533333333333333 1.1692083333333334 1.0032916666666667 2.0487499999999996 2.1734166666666668 2.129875C5.0874999999999995 20.531499999999998 7.1669583333333335 20.625 10.083333333333332 20.625s4.995833333333334 -0.09349999999999999 6.342875 -0.18699999999999997c1.1701249999999999 -0.08066666666666666 2.0780833333333333 -0.9606666666666667 2.1734166666666668 -2.129875 0.049958333333333334 -0.6109583333333333 0.09854166666666667 -1.3731666666666666 0.13429166666666664 -2.2971666666666666" stroke-width="2"></path><path id="Vector 1356" stroke="#ffffff" stroke-linecap="round" stroke-linejoin="round" d="m16.5 12.375 0 0.9166666666666666" stroke-width="2"></path></g></svg>